<svg xmlns="http://www.w3.org/2000/svg" width="1600" height="1000" viewBox="0 0 1600 1000" role="img" aria-labelledby="title desc">
<title>Richmond Hill Turnkey Office</title>
<desc>Professional office with commuter access</desc>
<defs>
  <linearGradient id="bg" x1="0" y1="0" x2="1" y2="1">
    <stop offset="0%" stop-color="#0f172a"/>
    <stop offset="60%" stop-color="#14233f"/>
    <stop offset="100%" stop-color="#0f172a"/>
  </linearGradient>
  <filter id="blur"><feGaussianBlur stdDeviation="36"/></filter>
</defs>
<rect width="1600" height="1000" fill="url(#bg)"/>
<circle cx="210" cy="180" r="220" fill="#3b82f6" opacity=".18" filter="url(#blur)"/>
<circle cx="1290" cy="220" r="260" fill="#67e8f9" opacity=".16" filter="url(#blur)"/>
<circle cx="1180" cy="820" r="320" fill="#3b82f6" opacity=".14" filter="url(#blur)"/>
<rect x="120" y="120" width="1360" height="760" rx="42" fill="rgba(255,255,255,.05)" stroke="rgba(255,255,255,.14)"/>
<rect x="180" y="180" width="1240" height="640" rx="34" fill="rgba(255,255,255,.04)" stroke="rgba(255,255,255,.12)"/>
<g opacity=".92">
  <rect x="250" y="300" width="780" height="360" rx="26" fill="rgba(255,255,255,.08)" stroke="rgba(255,255,255,.18)"/>
  <rect x="1080" y="270" width="210" height="390" rx="24" fill="rgba(255,255,255,.08)" stroke="rgba(255,255,255,.18)"/>
  <rect x="1315" y="270" width="40" height="390" rx="16" fill="#3b82f6" opacity=".95"/>
  <rect x="280" y="330" width="720" height="44" rx="16" fill="rgba(255,255,255,.1)"/>
  <rect x="280" y="395" width="400" height="22" rx="11" fill="rgba(255,255,255,.12)"/>
  <rect x="280" y="440" width="300" height="22" rx="11" fill="rgba(255,255,255,.09)"/>
  <rect x="280" y="545" width="190" height="72" rx="20" fill="#3b82f6"/>
  <rect x="500" y="545" width="240" height="72" rx="20" fill="rgba(255,255,255,.08)" stroke="rgba(255,255,255,.12)"/>
  <rect x="1080" y="706" width="275" height="54" rx="16" fill="rgba(255,255,255,.07)" stroke="rgba(255,255,255,.12)"/>
</g>
<g>
  <text x="260" y="735" fill="white" font-family="Inter, Arial, sans-serif" font-size="64" font-weight="700">Richmond Hill Turnkey Office</text>
  <text x="260" y="785" fill="rgba(255,255,255,.78)" font-family="Inter, Arial, sans-serif" font-size="30">Professional office with commuter access</text>
</g>
</svg>